<?xml version="1.0" encoding="UTF-8"?>
<svg width="22px" height="23px" viewBox="0 0 22 23" version="1.1" xmlns="http://www.w3.org/2000/svg" xmlns:xlink="http://www.w3.org/1999/xlink">
    <!-- Generator: Sketch 47.1 (45422) - http://www.bohemiancoding.com/sketch -->
    <title>brightness</title>
    <desc>Created with Sketch.</desc>
    <defs></defs>
    <g id="MVP" stroke="none" stroke-width="1" fill="none" fill-rule="evenodd">
        <g id="Home-Page---City" transform="translate(-73.000000, -372.000000)" fill="#F5A623">
            <path d="M84,388.5 C86.761424,388.5 89,386.261424 89,383.5 C89,380.738576 86.761424,378.5 84,378.5 C81.238576,378.5 79,380.738576 79,383.5 C79,386.261424 81.238576,388.5 84,388.5 L84,388.5 Z M84,387.5 C86.209139,387.5 88,385.709139 88,383.5 C88,381.290861 86.209139,379.5 84,379.5 C81.790861,379.5 80,381.290861 80,383.5 C80,385.709139 81.790861,387.5 84,387.5 L84,387.5 Z M83.5,372.5 L83.5,376.5 L84.5,376.5 L84.5,372.5 L83.5,372.5 L83.5,372.5 Z M83.5,390.5 L83.5,394.5 L84.5,394.5 L84.5,390.5 L83.5,390.5 L83.5,390.5 Z M73,383 L73,384 L77,384 L77,383 L73,383 L73,383 Z M91,383 L91,384 L95,384 L95,383 L91,383 L91,383 Z M75.732233,375.93934 L78.56066,378.767767 L79.267767,378.06066 L76.43934,375.232233 L75.732233,375.93934 L75.732233,375.93934 Z M88.732233,388.93934 L91.56066,391.767767 L92.267767,391.06066 L89.43934,388.232233 L88.732233,388.93934 L88.732233,388.93934 Z M75.732233,391.06066 L76.43934,391.767767 L79.267767,388.93934 L78.56066,388.232233 L75.732233,391.06066 L75.732233,391.06066 Z M88.732233,378.06066 L89.43934,378.767767 L92.267767,375.93934 L91.56066,375.232233 L88.732233,378.06066 L88.732233,378.06066 Z" id="brightness"></path>
        </g>
    </g>
</svg>